<?xml version="1.0" encoding="UTF-8"?>
<svg id="Capa_1" xmlns="http://www.w3.org/2000/svg" version="1.1" viewBox="0 0 1440.73 542.44">
  <!-- Generator: Adobe Illustrator 30.1.0, SVG Export Plug-In . SVG Version: 2.1.1 Build 136)  -->
  <path d="M51.46,45.81l.67-14.64h-.81l-15.05,24.59h-3.22l-15.72-24.59h-.67l.81,13.17v51.59H0V1.88h18.67l16.12,26.06h.54L51.32,1.88h18.54v94.04h-18.41v-50.11Z"/>
  <path d="M131.66,1.88h17.47v60.19c0,6.09-.81,11.35-2.42,15.79-1.61,4.43-3.88,8.11-6.79,11.02-2.91,2.91-6.38,5.08-10.41,6.52s-8.46,2.15-13.3,2.15c-11.64,0-20.27-2.82-25.86-8.46-5.6-5.64-8.4-13.88-8.4-24.72V1.88h18.41v58.84c0,7.17,1.3,12.36,3.9,15.58,2.6,3.22,6.67,4.84,12.23,4.84s9.25-1.72,11.62-5.17c2.37-3.45,3.56-8.53,3.56-15.25V1.88Z"/>
  <path d="M164.57,65.16h14.78v13.3c.27.09.54.18.81.27,2.06.9,4.32,1.64,6.78,2.22,2.46.58,5.08.87,7.86.87,5.01,0,8.91-1.01,11.69-3.02,2.78-2.02,4.17-4.72,4.17-8.13,0-3.04-1.14-5.51-3.43-7.39-2.28-1.88-5.1-3.54-8.46-4.97-3.36-1.43-7.03-2.87-11.02-4.3-3.99-1.43-7.66-3.25-11.02-5.44-3.36-2.19-6.18-4.95-8.46-8.26-2.28-3.31-3.43-7.61-3.43-12.9,0-4.03.78-7.73,2.35-11.08,1.57-3.36,3.76-6.25,6.58-8.67,2.82-2.42,6.2-4.3,10.14-5.64,3.94-1.34,8.33-2.02,13.17-2.02,5.46,0,10.84.49,16.12,1.48,5.28.99,9.49,2.33,12.63,4.03v27.27h-14.78v-14.91c-.27,0-.54-.04-.81-.13-1.97-.54-4.1-.96-6.38-1.28-2.28-.31-4.55-.47-6.78-.47-4.3,0-7.68.85-10.14,2.55-2.46,1.7-3.69,3.99-3.69,6.85s1.14,5.37,3.43,7.25,5.11,3.58,8.46,5.1c3.36,1.52,7.03,3.05,11.02,4.57,3.98,1.52,7.66,3.38,11.02,5.58,3.36,2.2,6.18,4.95,8.46,8.26,2.28,3.31,3.43,7.48,3.43,12.49s-.9,9.07-2.69,12.7c-1.79,3.63-4.3,6.67-7.52,9.14-3.22,2.46-7.03,4.3-11.42,5.51-4.39,1.21-9.14,1.81-14.24,1.81-3.4,0-6.56-.27-9.47-.81-2.91-.54-5.6-1.21-8.06-2.02-2.46-.81-4.63-1.66-6.52-2.55-1.88-.89-3.41-1.66-4.57-2.28v-24.99Z"/>
  <path d="M245.85,1.88h61.67v16.39h-43.26v21.9h39.9v16.39h-39.9v22.97h43.93v16.39h-62.34V1.88Z"/>
  <path d="M321.89,48.9c0-7.61.72-14.46,2.15-20.56,1.43-6.09,3.63-11.22,6.58-15.38,2.96-4.17,6.65-7.37,11.08-9.61,4.43-2.24,9.65-3.36,15.65-3.36,6.45,0,11.91,1.21,16.39,3.63,4.48,2.42,8.13,5.78,10.95,10.08,2.82,4.3,4.88,9.45,6.18,15.45,1.3,6,1.95,12.58,1.95,19.75,0,15.32-2.93,27.3-8.8,35.94-5.87,8.64-14.76,12.96-26.67,12.96-6.45,0-11.94-1.21-16.46-3.63-4.52-2.42-8.2-5.78-11.02-10.08-2.82-4.3-4.86-9.45-6.11-15.45-1.26-6-1.88-12.58-1.88-19.75ZM341.24,48.9c0,4.57.2,8.82.6,12.76.4,3.94,1.16,7.37,2.28,10.28,1.12,2.91,2.73,5.22,4.84,6.92,2.1,1.7,4.9,2.55,8.4,2.55,3.13,0,5.73-.65,7.79-1.95,2.06-1.3,3.72-3.29,4.97-5.98,1.25-2.69,2.13-6.07,2.62-10.14.49-4.07.74-8.89.74-14.44,0-4.39-.16-8.55-.47-12.49-.31-3.94-1.03-7.39-2.15-10.34-1.12-2.96-2.75-5.31-4.9-7.05-2.15-1.75-5.02-2.62-8.6-2.62-6.27,0-10.53,2.73-12.76,8.2-2.24,5.46-3.36,13.57-3.36,24.32Z"/>
  <path d="M535.1,45.81l.67-14.64h-.81l-15.05,24.59h-3.22l-15.72-24.59h-.67l.81,13.17v51.59h-17.46V1.88h18.67l16.12,26.06h.54l15.99-26.06h18.54v94.04h-18.41v-50.11Z"/>
  <path d="M615.31,1.88h17.47v60.19c0,6.09-.81,11.35-2.42,15.79-1.61,4.43-3.88,8.11-6.79,11.02-2.91,2.91-6.38,5.08-10.41,6.52s-8.46,2.15-13.3,2.15c-11.64,0-20.27-2.82-25.86-8.46-5.6-5.64-8.4-13.88-8.4-24.72V1.88h18.41v58.84c0,7.17,1.3,12.36,3.9,15.58,2.6,3.22,6.67,4.84,12.23,4.84s9.25-1.72,11.62-5.17c2.37-3.45,3.56-8.53,3.56-15.25V1.88Z"/>
  <path d="M664.34,40.3h-.67l.81,11.15v44.47h-17.46V1.88h16.12l32.51,57.5h.67l-1.21-11.29V1.88h17.46v94.04h-16.12l-32.11-55.62Z"/>
  <path d="M727.35,79.53h23.78V18.27h-23.78V1.88h66.1v16.39h-23.91v61.26h23.91v16.39h-66.1v-16.39Z"/>
  <path d="M860.35,64.35h14.78v26.87c-2.87,2.06-6.52,3.67-10.95,4.84s-8.98,1.75-13.64,1.75c-5.91,0-11.53-.87-16.86-2.62-5.33-1.75-10.01-4.57-14.04-8.46-4.03-3.9-7.25-8.96-9.67-15.18-2.42-6.22-3.63-13.77-3.63-22.64s1.36-16.95,4.1-23.17c2.73-6.22,6.25-11.24,10.55-15.05,4.3-3.81,9.09-6.54,14.38-8.2,5.28-1.66,10.48-2.49,15.58-2.49,5.37,0,9.92.45,13.64,1.34,3.71.9,6.78,1.93,9.2,3.09v27.94h-14.78v-15.32c-2.78-.45-5.64-.67-8.6-.67-3.49,0-6.74.65-9.74,1.95-3,1.3-5.62,3.29-7.86,5.98-2.24,2.69-3.99,6.07-5.24,10.14-1.25,4.08-1.88,8.89-1.88,14.44,0,4.84.58,9.25,1.75,13.23,1.16,3.99,2.87,7.41,5.11,10.28,2.24,2.87,4.97,5.08,8.2,6.65,3.22,1.57,6.9,2.35,11.02,2.35,2.96,0,5.82-.27,8.6-.81v-16.26Z"/>
  <path d="M888.57,79.53h23.78V18.27h-23.78V1.88h66.1v16.39h-23.91v61.26h23.91v16.39h-66.1v-16.39Z"/>
  <path d="M971.73,2.82c3.76-.72,7.9-1.28,12.43-1.68,4.52-.4,9.02-.6,13.5-.6s9.34.38,14.04,1.14c4.7.76,8.93,2.28,12.7,4.57,3.76,2.28,6.83,5.46,9.2,9.54,2.37,4.08,3.56,9.38,3.56,15.92,0,5.73-1.03,10.64-3.09,14.71-2.06,4.08-4.79,7.44-8.2,10.08-3.4,2.64-7.28,4.57-11.62,5.78-4.34,1.21-8.85,1.81-13.5,1.81h-2.15c-.99,0-2.01-.02-3.09-.07-1.07-.04-2.13-.11-3.16-.2-1.03-.09-1.77-.18-2.22-.27v32.38h-18.41V2.82ZM999.13,16.39c-1.79,0-3.49.07-5.11.2s-2.91.29-3.9.47v30.5c.36.09.89.18,1.61.27.72.09,1.48.16,2.28.2.81.05,1.59.07,2.35.07h1.68c2.42,0,4.81-.22,7.19-.67,2.37-.45,4.5-1.28,6.38-2.49,1.88-1.21,3.38-2.89,4.5-5.04,1.12-2.15,1.68-4.97,1.68-8.46,0-2.96-.54-5.39-1.61-7.32-1.07-1.92-2.49-3.47-4.23-4.63-1.75-1.16-3.74-1.97-5.98-2.42-2.24-.45-4.52-.67-6.85-.67Z"/>
  <path d="M1096.26,75.1h-28.08l-6.45,20.82h-18.41l30.36-94.04h18.41l30.23,94.04h-19.35l-6.72-20.82ZM1072.49,60.32h20.15l-9.54-31.44h-1.21l-9.4,31.44Z"/>
  <path d="M1178.75,57.64h16.66v38.29h-61.8V1.88h18.41v77.65h26.74v-21.9Z"/>
  <path d="M1.34,150.09c.81-.09,2.22-.22,4.23-.4,2.02-.18,4.3-.34,6.85-.47s5.19-.25,7.93-.34c2.73-.09,5.17-.13,7.32-.13,8.33,0,15.23,1.21,20.69,3.63,5.46,2.42,9.78,5.76,12.96,10.01,3.18,4.26,5.39,9.27,6.65,15.05,1.25,5.78,1.88,12.07,1.88,18.88,0,6.18-.63,12.23-1.88,18.14-1.26,5.91-3.52,11.17-6.79,15.79-3.27,4.61-7.79,8.33-13.57,11.15-5.78,2.82-13.19,4.23-22.23,4.23-1.43,0-3.27-.05-5.51-.13-2.24-.09-4.52-.2-6.85-.34-2.33-.13-4.57-.27-6.72-.4s-3.81-.29-4.97-.47v-94.18ZM28.35,165.14c-1.7,0-3.36.07-4.97.2-1.61.13-2.82.25-3.63.34v63.01c.36.09.89.16,1.61.2.72.05,1.46.09,2.22.13.76.05,1.5.09,2.22.13.72.05,1.3.07,1.75.07,5.19,0,9.34-.96,12.43-2.89,3.09-1.92,5.39-4.45,6.92-7.59,1.52-3.13,2.51-6.67,2.96-10.61.45-3.94.67-7.88.67-11.82,0-3.4-.2-6.94-.6-10.61-.4-3.67-1.34-7.03-2.82-10.08-1.48-3.04-3.69-5.55-6.65-7.52-2.96-1.97-6.99-2.96-12.09-2.96Z"/>
  <path d="M84.64,150.09h61.67v16.39h-43.26v21.9h39.9v16.39h-39.9v22.97h43.93v16.39h-62.34v-94.04Z"/>
  <path d="M290.19,223.31h-28.08l-6.45,20.82h-18.41l30.36-94.04h18.41l30.23,94.04h-19.35l-6.72-20.82ZM266.41,208.54h20.15l-9.54-31.44h-1.21l-9.4,31.44Z"/>
  <path d="M325.39,151.03c2.06-.36,4.28-.69,6.65-1.01,2.37-.31,4.75-.56,7.12-.74,2.37-.18,4.68-.31,6.92-.4,2.24-.09,4.3-.13,6.18-.13,4.39,0,8.71.43,12.96,1.28,4.25.85,8.06,2.31,11.42,4.37,3.36,2.06,6.05,4.84,8.06,8.33,2.01,3.49,3.02,7.84,3.02,13.03,0,3.85-.38,7.19-1.14,10.01-.76,2.82-1.81,5.31-3.16,7.46s-2.98,4.01-4.9,5.58c-1.93,1.57-4.01,2.98-6.25,4.23l22.71,41.11h-21.23l-18.94-36.81h-11.02v36.81h-18.41v-93.1ZM353.6,165.14c-1.88,0-3.74.05-5.58.13-1.84.09-3.25.27-4.23.54v27.27h7.25c5.11,0,9.27-1.16,12.49-3.49,3.22-2.33,4.84-6.18,4.84-11.55,0-4.03-1.26-7.19-3.76-9.47-2.51-2.28-6.18-3.43-11.02-3.43Z"/>
  <path d="M413.52,229.36h15.32v-64.49h-12.9v16.26h-14.78v-31.03h73.62v31.03h-14.78v-16.26h-12.76v64.49h15.18v14.78h-48.9v-14.78Z"/>
  <path d="M487.68,150.09h61.67v16.39h-43.26v21.9h39.9v16.39h-39.9v22.97h43.93v16.39h-62.34v-94.04Z"/>
  <path d="M646.21,150.09c.81-.09,2.22-.22,4.23-.4,2.02-.18,4.3-.34,6.85-.47s5.19-.25,7.93-.34c2.73-.09,5.17-.13,7.32-.13,8.33,0,15.23,1.21,20.69,3.63,5.46,2.42,9.78,5.76,12.96,10.01,3.18,4.26,5.39,9.27,6.65,15.05,1.25,5.78,1.88,12.07,1.88,18.88,0,6.18-.63,12.23-1.88,18.14-1.26,5.91-3.52,11.17-6.79,15.79-3.27,4.61-7.79,8.33-13.57,11.15-5.78,2.82-13.19,4.23-22.23,4.23-1.43,0-3.27-.05-5.51-.13-2.24-.09-4.52-.2-6.85-.34-2.33-.13-4.57-.27-6.72-.4s-3.81-.29-4.97-.47v-94.18ZM673.21,165.14c-1.7,0-3.36.07-4.97.2-1.61.13-2.82.25-3.63.34v63.01c.36.09.89.16,1.61.2.72.05,1.46.09,2.22.13.76.05,1.5.09,2.22.13.72.05,1.3.07,1.75.07,5.19,0,9.34-.96,12.43-2.89,3.09-1.92,5.39-4.45,6.92-7.59,1.52-3.13,2.51-6.67,2.96-10.61.45-3.94.67-7.88.67-11.82,0-3.4-.2-6.94-.6-10.61-.4-3.67-1.34-7.03-2.82-10.08-1.48-3.04-3.69-5.55-6.65-7.52-2.96-1.97-6.99-2.96-12.09-2.96Z"/>
  <path d="M729.5,150.09h61.67v16.39h-43.26v21.9h39.9v16.39h-39.9v22.97h43.93v16.39h-62.34v-94.04Z"/>
  <path d="M860.35,212.57h14.78v26.87c-2.87,2.06-6.52,3.67-10.95,4.84s-8.98,1.75-13.64,1.75c-5.91,0-11.53-.87-16.86-2.62-5.33-1.75-10.01-4.57-14.04-8.46-4.03-3.9-7.25-8.96-9.67-15.18-2.42-6.22-3.63-13.77-3.63-22.64s1.36-16.95,4.1-23.17c2.73-6.22,6.25-11.24,10.55-15.05,4.3-3.81,9.09-6.54,14.38-8.2,5.28-1.66,10.48-2.49,15.58-2.49,5.37,0,9.92.45,13.64,1.34,3.71.9,6.78,1.93,9.2,3.09v27.94h-14.78v-15.32c-2.78-.45-5.64-.67-8.6-.67-3.49,0-6.74.65-9.74,1.95-3,1.3-5.62,3.29-7.86,5.98-2.24,2.69-3.99,6.07-5.24,10.14-1.25,4.08-1.88,8.89-1.88,14.44,0,4.84.58,9.25,1.75,13.23,1.16,3.99,2.87,7.41,5.11,10.28,2.24,2.87,4.97,5.08,8.2,6.65,3.22,1.57,6.9,2.35,11.02,2.35,2.96,0,5.82-.27,8.6-.81v-16.26Z"/>
  <path d="M886.15,197.12c0-7.61.72-14.46,2.15-20.56,1.43-6.09,3.63-11.22,6.58-15.38,2.96-4.17,6.65-7.37,11.08-9.61,4.43-2.24,9.65-3.36,15.65-3.36,6.45,0,11.91,1.21,16.39,3.63,4.48,2.42,8.13,5.78,10.95,10.08,2.82,4.3,4.88,9.45,6.18,15.45,1.3,6,1.95,12.58,1.95,19.75,0,15.32-2.93,27.3-8.8,35.94-5.87,8.64-14.76,12.96-26.67,12.96-6.45,0-11.94-1.21-16.46-3.63-4.52-2.42-8.2-5.78-11.02-10.08-2.82-4.3-4.86-9.45-6.11-15.45-1.26-6-1.88-12.58-1.88-19.75ZM905.49,197.12c0,4.57.2,8.82.6,12.76.4,3.94,1.16,7.37,2.28,10.28,1.12,2.91,2.73,5.22,4.84,6.92,2.1,1.7,4.9,2.55,8.4,2.55,3.13,0,5.73-.65,7.79-1.95,2.06-1.3,3.72-3.29,4.97-5.98,1.25-2.69,2.13-6.07,2.62-10.14.49-4.07.74-8.89.74-14.44,0-4.39-.16-8.55-.47-12.49-.31-3.94-1.03-7.39-2.15-10.34-1.12-2.96-2.75-5.31-4.9-7.05-2.15-1.75-5.02-2.62-8.6-2.62-6.27,0-10.53,2.73-12.76,8.2-2.24,5.46-3.36,13.57-3.36,24.32Z"/>
  <path d="M970.25,151.03c2.06-.36,4.28-.69,6.65-1.01,2.37-.31,4.75-.56,7.12-.74,2.37-.18,4.68-.31,6.92-.4,2.24-.09,4.3-.13,6.18-.13,4.39,0,8.71.43,12.96,1.28,4.25.85,8.06,2.31,11.42,4.37,3.36,2.06,6.05,4.84,8.06,8.33,2.01,3.49,3.02,7.84,3.02,13.03,0,3.85-.38,7.19-1.14,10.01-.76,2.82-1.81,5.31-3.16,7.46s-2.98,4.01-4.9,5.58c-1.93,1.57-4.01,2.98-6.25,4.23l22.71,41.11h-21.23l-18.94-36.81h-11.02v36.81h-18.41v-93.1ZM998.46,165.14c-1.88,0-3.74.05-5.58.13-1.84.09-3.25.27-4.23.54v27.27h7.25c5.11,0,9.27-1.16,12.49-3.49,3.22-2.33,4.84-6.18,4.84-11.55,0-4.03-1.26-7.19-3.76-9.47-2.51-2.28-6.18-3.43-11.02-3.43Z"/>
  <path d="M1096.26,223.31h-28.08l-6.45,20.82h-18.41l30.36-94.04h18.41l30.23,94.04h-19.35l-6.72-20.82ZM1072.49,208.54h20.15l-9.54-31.44h-1.21l-9.4,31.44Z"/>
  <path d="M1138.99,229.36h15.32v-64.49h-12.9v16.26h-14.78v-31.03h73.62v31.03h-14.78v-16.26h-12.76v64.49h15.18v14.78h-48.9v-14.78Z"/>
  <path d="M1211,227.75h23.78v-61.26h-23.78v-16.39h66.1v16.39h-23.91v61.26h23.91v16.39h-66.1v-16.39Z"/>
  <path d="M1325.46,219.01h.67l18.54-68.92h19.08l-28.21,94.04h-20.96l-29.02-94.04h20.56l19.35,68.92Z"/>
  <path d="M1369.79,197.12c0-7.61.72-14.46,2.15-20.56,1.43-6.09,3.63-11.22,6.58-15.38,2.96-4.17,6.65-7.37,11.08-9.61,4.43-2.24,9.65-3.36,15.65-3.36,6.45,0,11.91,1.21,16.39,3.63,4.48,2.42,8.13,5.78,10.95,10.08,2.82,4.3,4.88,9.45,6.18,15.45,1.3,6,1.95,12.58,1.95,19.75,0,15.32-2.93,27.3-8.8,35.94-5.87,8.64-14.76,12.96-26.67,12.96-6.45,0-11.94-1.21-16.46-3.63-4.52-2.42-8.2-5.78-11.02-10.08-2.82-4.3-4.86-9.45-6.11-15.45-1.26-6-1.88-12.58-1.88-19.75ZM1389.14,197.12c0,4.57.2,8.82.6,12.76.4,3.94,1.16,7.37,2.28,10.28,1.12,2.91,2.73,5.22,4.84,6.92,2.1,1.7,4.9,2.55,8.4,2.55,3.13,0,5.73-.65,7.79-1.95,2.06-1.3,3.72-3.29,4.97-5.98,1.25-2.69,2.13-6.07,2.62-10.14.49-4.07.74-8.89.74-14.44,0-4.39-.16-8.55-.47-12.49-.31-3.94-1.03-7.39-2.15-10.34-1.12-2.96-2.75-5.31-4.9-7.05-2.15-1.75-5.02-2.62-8.6-2.62-6.27,0-10.53,2.73-12.76,8.2-2.24,5.46-3.36,13.57-3.36,24.32Z"/>
  <path d="M5.91,298.31h59.65v16.39H24.32v23.24h38.29v16.39H24.32v38.02H5.91v-94.04Z"/>
  <path d="M82.49,375.96h23.78v-61.26h-23.78v-16.39h66.1v16.39h-23.91v61.26h23.91v16.39h-66.1v-16.39Z"/>
  <path d="M164.17,299.25c2.06-.36,4.28-.69,6.65-1.01,2.37-.31,4.75-.56,7.12-.74,2.37-.18,4.68-.31,6.92-.4,2.24-.09,4.3-.13,6.18-.13,4.39,0,8.71.43,12.96,1.28,4.25.85,8.06,2.31,11.42,4.37,3.36,2.06,6.05,4.84,8.06,8.33,2.01,3.49,3.02,7.84,3.02,13.03,0,3.85-.38,7.19-1.14,10.01-.76,2.82-1.81,5.31-3.16,7.46s-2.98,4.01-4.9,5.58c-1.93,1.57-4.01,2.98-6.25,4.23l22.71,41.11h-21.23l-18.94-36.81h-11.02v36.81h-18.41v-93.1ZM192.38,313.35c-1.88,0-3.74.05-5.58.13-1.84.09-3.25.27-4.23.54v27.27h7.25c5.11,0,9.27-1.16,12.49-3.49,3.22-2.33,4.84-6.18,4.84-11.55,0-4.03-1.26-7.19-3.76-9.47-2.51-2.28-6.18-3.43-11.02-3.43Z"/>
  <path d="M293.28,342.24l.67-14.64h-.81l-15.05,24.59h-3.22l-15.72-24.59h-.67l.81,13.17v51.59h-17.46v-94.04h18.67l16.12,26.06h.54l15.99-26.06h18.54v94.04h-18.41v-50.11Z"/>
  <path d="M370.8,371.53h-28.08l-6.45,20.82h-18.41l30.36-94.04h18.41l30.23,94.04h-19.35l-6.72-20.82ZM347.02,356.75h20.15l-9.54-31.44h-1.21l-9.4,31.44Z"/>
  <path d="M509.44,357.69l-30.36-59.38h21.9l18.14,38.83h.67l18.54-38.83h19.75l-30.23,59.25v34.8h-18.41v-34.66Z"/>
  <path d="M644.32,345.33c0-7.61.72-14.46,2.15-20.56,1.43-6.09,3.63-11.22,6.58-15.38,2.96-4.17,6.65-7.37,11.08-9.61,4.43-2.24,9.65-3.36,15.65-3.36,6.45,0,11.91,1.21,16.39,3.63,4.48,2.42,8.13,5.78,10.95,10.08,2.82,4.3,4.88,9.45,6.18,15.45,1.3,6,1.95,12.58,1.95,19.75,0,15.32-2.93,27.3-8.8,35.94-5.87,8.64-14.76,12.96-26.67,12.96-6.45,0-11.94-1.21-16.46-3.63-4.52-2.42-8.2-5.78-11.02-10.08-2.82-4.3-4.86-9.45-6.11-15.45-1.26-6-1.88-12.58-1.88-19.75ZM663.67,345.33c0,4.57.2,8.82.6,12.76.4,3.94,1.16,7.37,2.28,10.28,1.12,2.91,2.73,5.22,4.84,6.92,2.1,1.7,4.9,2.55,8.4,2.55,3.13,0,5.73-.65,7.79-1.95,2.06-1.3,3.72-3.29,4.97-5.98,1.25-2.69,2.13-6.07,2.62-10.14.49-4.07.74-8.89.74-14.44,0-4.39-.16-8.55-.47-12.49-.31-3.94-1.03-7.39-2.15-10.34-1.12-2.96-2.75-5.31-4.9-7.05-2.15-1.75-5.02-2.62-8.6-2.62-6.27,0-10.53,2.73-12.76,8.2-2.24,5.46-3.36,13.57-3.36,24.32Z"/>
  <path d="M726.81,298.31c.81-.09,2.22-.22,4.23-.4,2.02-.18,4.3-.34,6.85-.47s5.19-.25,7.93-.34c2.73-.09,5.17-.13,7.32-.13,8.33,0,15.23,1.21,20.69,3.63,5.46,2.42,9.78,5.76,12.96,10.01,3.18,4.26,5.39,9.27,6.65,15.05,1.25,5.78,1.88,12.07,1.88,18.88,0,6.18-.63,12.23-1.88,18.14-1.26,5.91-3.52,11.17-6.79,15.79-3.27,4.61-7.79,8.33-13.57,11.15-5.78,2.82-13.19,4.23-22.23,4.23-1.43,0-3.27-.05-5.51-.13-2.24-.09-4.52-.2-6.85-.34-2.33-.13-4.57-.27-6.72-.4s-3.81-.29-4.97-.47v-94.18ZM753.82,313.35c-1.7,0-3.36.07-4.97.2-1.61.13-2.82.25-3.63.34v63.01c.36.09.89.16,1.61.2.72.05,1.46.09,2.22.13.76.05,1.5.09,2.22.13.72.05,1.3.07,1.75.07,5.19,0,9.34-.96,12.43-2.89,3.09-1.92,5.39-4.45,6.92-7.59,1.52-3.13,2.51-6.67,2.96-10.61.45-3.94.67-7.88.67-11.82,0-3.4-.2-6.94-.6-10.61-.4-3.67-1.34-7.03-2.82-10.08-1.48-3.04-3.69-5.55-6.65-7.52-2.96-1.97-6.99-2.96-12.09-2.96Z"/>
  <path d="M807.96,375.96h23.78v-61.26h-23.78v-16.39h66.1v16.39h-23.91v61.26h23.91v16.39h-66.1v-16.39Z"/>
  <path d="M936.93,354.06h16.66v38.29h-61.8v-94.04h18.41v77.65h26.74v-21.9Z"/>
  <path d="M966.75,345.33c0-7.61.72-14.46,2.15-20.56,1.43-6.09,3.63-11.22,6.58-15.38,2.96-4.17,6.65-7.37,11.08-9.61,4.43-2.24,9.65-3.36,15.65-3.36,6.45,0,11.91,1.21,16.39,3.63,4.48,2.42,8.13,5.78,10.95,10.08,2.82,4.3,4.88,9.45,6.18,15.45,1.3,6,1.95,12.58,1.95,19.75,0,15.32-2.93,27.3-8.8,35.94-5.87,8.64-14.76,12.96-26.67,12.96-6.45,0-11.94-1.21-16.46-3.63-4.52-2.42-8.2-5.78-11.02-10.08-2.82-4.3-4.86-9.45-6.11-15.45-1.26-6-1.88-12.58-1.88-19.75ZM986.1,345.33c0,4.57.2,8.82.6,12.76.4,3.94,1.16,7.37,2.28,10.28,1.12,2.91,2.73,5.22,4.84,6.92,2.1,1.7,4.9,2.55,8.4,2.55,3.13,0,5.73-.65,7.79-1.95,2.06-1.3,3.72-3.29,4.97-5.98,1.25-2.69,2.13-6.07,2.62-10.14.49-4.07.74-8.89.74-14.44,0-4.39-.16-8.55-.47-12.49-.31-3.94-1.03-7.39-2.15-10.34-1.12-2.96-2.75-5.31-4.9-7.05-2.15-1.75-5.02-2.62-8.6-2.62-6.27,0-10.53,2.73-12.76,8.2-2.24,5.46-3.36,13.57-3.36,24.32Z"/>
  <path d="M4.03,446.52h61.67v16.39H22.44v21.9h39.9v16.39H22.44v22.97h43.93v16.39H4.03v-94.04Z"/>
  <path d="M83.97,509.8h14.78v13.3c.27.09.54.18.81.27,2.06.9,4.32,1.63,6.78,2.22,2.46.58,5.08.87,7.86.87,5.01,0,8.91-1.01,11.69-3.02,2.78-2.02,4.17-4.72,4.17-8.13,0-3.04-1.14-5.51-3.43-7.39-2.28-1.88-5.1-3.54-8.46-4.97-3.36-1.43-7.03-2.87-11.02-4.3-3.99-1.43-7.66-3.25-11.02-5.44-3.36-2.19-6.18-4.95-8.46-8.26-2.28-3.31-3.43-7.61-3.43-12.9,0-4.03.78-7.72,2.35-11.08,1.57-3.36,3.76-6.25,6.58-8.67,2.82-2.42,6.2-4.3,10.14-5.64,3.94-1.34,8.33-2.02,13.17-2.02,5.46,0,10.84.49,16.12,1.48,5.28.99,9.49,2.33,12.63,4.03v27.27h-14.78v-14.91c-.27,0-.54-.04-.81-.13-1.97-.54-4.1-.96-6.38-1.28-2.28-.31-4.55-.47-6.78-.47-4.3,0-7.68.85-10.14,2.55-2.46,1.7-3.69,3.99-3.69,6.85s1.14,5.37,3.43,7.25,5.11,3.58,8.46,5.11c3.36,1.52,7.03,3.05,11.02,4.57,3.98,1.52,7.66,3.38,11.02,5.58,3.36,2.2,6.18,4.95,8.46,8.26,2.28,3.31,3.43,7.48,3.43,12.49s-.9,9.07-2.69,12.7c-1.79,3.63-4.3,6.67-7.52,9.14-3.22,2.46-7.03,4.3-11.42,5.51-4.39,1.21-9.14,1.81-14.24,1.81-3.4,0-6.56-.27-9.47-.81-2.91-.54-5.6-1.21-8.06-2.02-2.46-.81-4.63-1.66-6.52-2.55-1.88-.89-3.41-1.66-4.57-2.28v-24.99Z"/>
  <path d="M171.69,525.78h15.32v-64.49h-12.9v16.26h-14.78v-31.03h73.62v31.03h-14.78v-16.26h-12.76v64.49h15.18v14.78h-48.9v-14.78Z"/>
  <path d="M245.85,446.52h61.67v16.39h-43.26v21.9h39.9v16.39h-39.9v22.97h43.93v16.39h-62.34v-94.04Z"/>
  <path d="M358.17,515.44h.67l18.54-68.92h19.08l-28.21,94.04h-20.96l-29.02-94.04h20.56l19.35,68.92Z"/>
  <path d="M407.07,446.52h61.67v16.39h-43.26v21.9h39.9v16.39h-39.9v22.97h43.93v16.39h-62.34v-94.04Z"/>
  <path d="M485.39,524.17l44.07-61.26h-41.92v-16.39h63.55v16.39l-43.39,61.26h44.07v16.39h-66.37v-16.39Z"/>
</svg>